<svg xmlns="http://www.w3.org/2000/svg" viewBox="0 0 900 120" fill="none" aria-hidden="true">
  <defs>
    <linearGradient id="gold" x1="0" y1="0" x2="0" y2="1">
      <stop offset="0%" stop-color="#E6C65C"/>
      <stop offset="100%" stop-color="#C9A24D"/>
    </linearGradient>
    <symbol id="lantern" viewBox="0 0 48 96">
      <path d="M24 0v6" stroke="url(#gold)" stroke-width="1.2" stroke-linecap="round"/>
      <path d="M24 6c-5 0-8 3-8 7v2h16v-2c0-4-3-7-8-7z" fill="url(#gold)" fill-opacity="0.2" stroke="#D4AF37" stroke-width="1"/>
      <path d="M12 15h24l-2 4H14l-2-4z" fill="url(#gold)" fill-opacity="0.15" stroke="#D4AF37" stroke-width="0.8"/>
      <path d="M10 19h28l3 28c0 6-6 12-14 16-8-4-14-10-14-16l3-28z" fill="url(#gold)" fill-opacity="0.18" stroke="#D4AF37" stroke-width="1"/>
      <path d="M15 24h5v14a2.5 2.5 0 0 1-5 0V24z" fill="#D4AF37" fill-opacity="0.35" stroke="#C9A24D" stroke-width="0.6"/>
      <path d="M21.5 22h5v16a2.5 2.5 0 0 1-5 0V22z" fill="#D4AF37" fill-opacity="0.35" stroke="#C9A24D" stroke-width="0.6"/>
      <path d="M28 24h5v14a2.5 2.5 0 0 1-5 0V24z" fill="#D4AF37" fill-opacity="0.35" stroke="#C9A24D" stroke-width="0.6"/>
      <path d="M14 52h20l-1.5 3H15.5l-1.5-3z" fill="url(#gold)" fill-opacity="0.12" stroke="#D4AF37" stroke-width="0.7"/>
      <path d="M16 55h16l2 10-10 7-10-7 2-10z" fill="url(#gold)" fill-opacity="0.15" stroke="#D4AF37" stroke-width="0.9"/>
      <path d="M24 65v8" stroke="#D4AF37" stroke-width="0.9" stroke-linecap="round"/>
      <circle cx="24" cy="78" r="2" fill="#D4AF37"/>
    </symbol>
  </defs>
  <!-- swag strings -->
  <path d="M70 8 C170 28, 250 4, 350 18 S530 6, 630 20 S770 8, 830 12" stroke="#D4AF37" stroke-width="1" fill="none" opacity="0.7"/>
  <!-- five lanterns, staggered -->
  <use href="#lantern" x="52" y="10" width="40" height="80"/>
  <use href="#lantern" x="198" y="18" width="44" height="88"/>
  <use href="#lantern" x="360" y="6" width="48" height="96"/>
  <use href="#lantern" x="528" y="18" width="44" height="88"/>
  <use href="#lantern" x="676" y="10" width="40" height="80"/>
</svg>
